<svg xmlns="http://www.w3.org/2000/svg" xmlns:xlink="http://www.w3.org/1999/xlink" width="500" zoomAndPan="magnify" viewBox="0 0 375 374.999991" height="500" preserveAspectRatio="xMidYMid meet" version="1.0"><defs><clipPath id="4ceb9242e6"><path d="M 19.519531 47 L 355.519531 47 L 355.519531 332.660156 L 19.519531 332.660156 Z M 19.519531 47 " clip-rule="nonzero"/></clipPath></defs><g clip-path="url(#4ceb9242e6)"><path fill="#d339af" d="M 271.519531 240.386719 C 271.519531 254.316406 260.246094 265.59375 246.316406 265.59375 C 232.414062 265.59375 221.140625 254.316406 221.140625 240.386719 C 221.140625 226.453125 232.414062 215.175781 246.316406 215.175781 C 260.246094 215.175781 271.519531 226.453125 271.519531 240.386719 Z M 153.933594 240.386719 C 153.933594 254.316406 142.628906 265.59375 128.726562 265.59375 C 114.796875 265.59375 103.519531 254.316406 103.519531 240.386719 C 103.519531 226.453125 114.796875 215.175781 128.726562 215.175781 C 142.628906 215.175781 153.933594 226.453125 153.933594 240.386719 Z M 305.140625 282.390625 C 305.109375 300.945312 290.074219 315.980469 271.519531 315.980469 L 103.519531 315.980469 C 84.96875 315.980469 69.933594 300.945312 69.933594 282.390625 L 69.933594 198.378906 C 69.933594 179.824219 84.96875 164.789062 103.519531 164.757812 L 271.519531 164.757812 C 290.074219 164.789062 305.109375 179.824219 305.140625 198.378906 Z M 330.316406 215.175781 L 321.902344 215.175781 L 321.902344 198.378906 C 321.902344 170.546875 299.351562 147.964844 271.519531 147.964844 L 204.316406 147.964844 L 204.316406 109.71875 C 220.394531 100.441406 225.910156 79.886719 216.605469 63.804688 C 207.328125 47.726562 186.804688 42.238281 170.726562 51.515625 C 154.648438 60.792969 149.128906 81.347656 158.4375 97.398438 C 161.359375 102.527344 165.625 106.765625 170.726562 109.71875 L 170.726562 147.964844 L 103.519531 147.964844 C 75.691406 147.964844 53.109375 170.546875 53.109375 198.378906 L 53.109375 215.175781 L 44.726562 215.175781 C 30.796875 215.175781 19.519531 226.453125 19.519531 240.386719 C 19.519531 254.316406 30.796875 265.59375 44.726562 265.59375 L 53.109375 265.59375 L 53.109375 282.390625 C 53.109375 310.222656 75.691406 332.804688 103.519531 332.804688 L 271.519531 332.804688 C 299.351562 332.804688 321.902344 310.222656 321.902344 282.390625 L 321.902344 265.59375 L 330.316406 265.59375 C 344.246094 265.59375 355.519531 254.316406 355.519531 240.386719 C 355.519531 226.453125 344.246094 215.175781 330.316406 215.175781 " fill-opacity="1" fill-rule="nonzero"/></g></svg>